<svg width="32" height="32" viewBox="0 0 32 32" fill="none" xmlns="http://www.w3.org/2000/svg">
<g clip-path="url(#clip0_4_99)">
<path fill-rule="evenodd" clip-rule="evenodd" d="M16.2966 22.3384C13.9612 22.3384 11.9221 21.0697 10.8309 19.1838L7.11939 21.3266C6.90354 21.4513 6.83506 21.7309 6.96875 21.9413C8.92759 25.0248 12.3731 27.071 16.2966 27.071C20.3836 27.071 23.952 24.8507 25.8615 21.5505L22.1288 19.3953C21.9287 19.2798 21.6741 19.3394 21.5457 19.5315C20.4139 21.224 18.4854 22.3384 16.2966 22.3384ZM29.5755 8.36159C29.7895 8.23809 29.8588 7.96187 29.7291 7.75168C26.9504 3.25172 21.9737 0.252808 16.2966 0.252808C10.458 0.252808 5.36028 3.42464 2.63239 8.13917L6.36001 10.2913C6.564 10.4091 6.82387 10.3447 6.9495 10.1455C8.90494 7.04511 12.3603 4.98542 16.2966 4.98542C20.3836 4.98542 23.952 7.20575 25.8615 10.5059L29.5755 8.36159Z" fill="#D2E1F0"/>
<path fill-rule="evenodd" clip-rule="evenodd" d="M16.2966 27.071C12.3731 27.071 8.92758 25.0248 6.96875 21.9414C6.83532 21.7313 6.9038 21.4512 7.11938 21.3266L10.8309 19.1838C10.2938 18.2555 9.98641 17.1778 9.98641 16.0283C9.98641 12.56 12.7949 9.71813 16.2966 9.71813C18.4854 9.71813 20.4139 10.8325 21.5457 12.525C21.674 12.7167 21.929 12.7764 22.1288 12.6611L25.8615 10.506C23.952 7.20581 20.3836 4.98547 16.2966 4.98547C12.3603 4.98547 8.90493 7.04517 6.9495 10.1455C6.824 10.3445 6.56372 10.409 6.36001 10.2914L2.63238 8.13923C1.28967 10.4599 0.521149 13.1544 0.521149 16.0283C0.521149 24.6991 7.54234 31.8037 16.2966 31.8037C21.9737 31.8037 26.9504 28.8048 29.7291 24.3048C29.8587 24.0948 29.7891 23.8183 29.5755 23.6948L25.8615 21.5505C23.952 24.8507 20.3836 27.071 16.2966 27.071Z" fill="#96AAB9"/>
<path fill-rule="evenodd" clip-rule="evenodd" d="M29.597 17.7249V14.3316L26.6583 16.0282L29.597 17.7249ZM24.4673 15.2692L30.0352 12.0546C30.6181 11.7181 31.3498 12.1405 31.3498 12.8136V19.2428C31.3498 19.9159 30.6181 20.3384 30.0352 20.0019L24.4673 16.7872C23.8853 16.4512 23.8853 15.6052 24.4673 15.2692Z" fill="#00E1C8"/>
</g>
<defs>
<clipPath id="clip0_4_99">
<rect width="32" height="32" fill="white"/>
</clipPath>
</defs>
</svg>
