<svg width="48" height="48" viewBox="0 0 48 48" fill="none" xmlns="http://www.w3.org/2000/svg">
<path d="M24 1.5C17.276 1.5 8.10981 1.60753 6.25781 1.76953C4.16381 3.01153 0.04 7.29897 0 8.54297V10.6016C0 13.2096 2.43644 15.5 4.64844 15.5C7.30644 15.5 9.52344 13.2976 9.52344 10.6836C9.52344 13.2976 11.6584 15.5 14.3164 15.5C16.9744 15.5 19.0469 13.2976 19.0469 10.6836C19.0469 13.2976 21.3186 15.5 23.9766 15.5H24.0273C26.6853 15.5 28.957 13.2976 28.957 10.6836C28.957 13.2976 31.0276 15.5 33.6836 15.5C36.3416 15.5 38.4805 13.2976 38.4805 10.6836C38.4805 13.2976 40.6936 15.5 43.3516 15.5C45.5616 15.5 48 13.2096 48 10.6016V8.54297C47.96 7.30097 43.8362 3.01153 41.7422 1.76953C35.2342 1.53953 30.724 1.5 24 1.5ZM18.9688 16.7734C18.7148 17.2154 18.3993 17.6206 18.0312 17.9766C17.0273 18.9566 15.6527 19.5664 14.1367 19.5664C12.6787 19.5684 11.2764 18.9966 10.2344 17.9766C9.87037 17.6206 9.59575 17.2409 9.34375 16.7969C9.09175 17.2409 8.73709 17.6186 8.37109 17.9766C7.32909 18.9966 5.92675 19.5684 4.46875 19.5664C4.28675 19.5664 4.09931 19.5149 3.94531 19.4609C3.73131 21.6849 3.68434 22.5828 3.65234 24.1328V24.1406C3.64834 24.9286 3.64462 25.5766 3.64062 26.4766C3.68263 31.1446 3.17922 41.6058 5.69922 44.1758C9.60522 45.0838 16.79 45.498 24 45.5C31.21 45.498 38.3948 45.0819 42.3008 44.1719C44.8208 41.6019 44.3174 31.1387 44.3594 26.4727C44.3554 25.5727 44.3517 24.9286 44.3477 24.1406V24.1328C44.3157 22.5828 44.1828 21.6849 43.9688 19.4609C43.8148 19.5129 43.6234 19.5625 43.4414 19.5625C41.9834 19.5645 40.5811 18.9966 39.5391 17.9766C39.1751 17.6206 38.8243 17.2409 38.5703 16.7969H38.5664C38.3124 17.2409 38.0378 17.6206 37.6758 17.9766C36.6338 18.9966 35.2314 19.5664 33.7734 19.5664C32.2574 19.5664 30.8829 18.9586 29.8789 17.9766C29.5129 17.6206 29.2013 17.2154 28.9453 16.7734C28.6933 17.2154 28.3815 17.6206 28.0195 17.9766C26.9775 18.9966 25.5752 19.5664 24.1172 19.5664C24.0652 19.5664 24.009 19.5645 23.957 19.5625C23.905 19.5645 23.8509 19.5664 23.7969 19.5664C22.3389 19.5684 20.9365 18.9966 19.8945 17.9766C19.5305 17.6206 19.2188 17.2154 18.9688 16.7734ZM15.9336 22.7891V22.793C17.3576 22.795 18.6234 22.7939 20.1914 24.5039C21.4242 24.374 22.7113 24.3067 24 24.3086H24.0039C25.2926 24.3067 26.5798 24.374 27.8125 24.5039C29.3805 22.7939 30.6424 22.795 32.0664 22.793H32.0703V22.7891C32.7423 22.7891 35.4346 22.7887 37.3086 28.0547L39.3203 35.2812C40.8123 40.6553 38.8427 40.7851 36.3867 40.7891C32.7427 40.6531 30.7266 38.0093 30.7266 35.3633C28.7086 35.6933 26.3579 35.8594 24.0039 35.8594C21.6499 35.8594 19.2933 35.6933 17.2773 35.3633C17.2773 38.0093 15.2612 40.6531 11.6172 40.7891C9.15919 40.7851 7.18769 40.6553 8.67969 35.2812L10.6953 28.0547C12.5693 22.7887 15.2596 22.7891 15.9336 22.7891ZM24 26.7656C23.998 26.7696 20.75 29.7525 20.168 30.8125L22.293 30.7266V32.5781C22.293 32.6641 23.148 32.6338 24 32.5938C24.854 32.6338 25.707 32.6641 25.707 32.5781V30.7266L27.832 30.8125C27.25 29.7505 24 26.7656 24 26.7656Z" fill="white"/>
</svg>
