<svg width="64" height="64" viewBox="0 0 64 64" fill="none" xmlns="http://www.w3.org/2000/svg">
<path d="M51.9313 44.6611C48.7767 44.6611 46.2188 46.914 46.2188 49.9001C46.2188 52.8862 48.7767 54.9154 51.9313 54.9154C55.0858 54.9154 57.6438 52.8862 57.6438 49.9001C57.6438 46.914 55.0858 44.6611 51.9313 44.6611ZM52.0207 46.2919C53.6108 46.3104 55.0821 47.9536 54.9019 50.1982C54.7131 52.551 52.6473 54.0291 50.8707 53.0794C48.8088 51.9772 48.4449 48.7829 50.1895 47.0794C50.754 46.5282 51.3985 46.2847 52.0207 46.2919Z" fill="white"/>
<path d="M31.9152 8.89819L37.1186 14.1016L31.9068 19.3134L26.6864 14.0931L31.9152 8.89819Z" fill="white"/>
<path d="M31.9118 10.322L35.6926 14.1028L31.9056 17.8898L28.1125 14.0967L31.9118 10.322Z" fill="black"/>
<path d="M31.9099 11.1003L34.9129 14.1034L31.905 17.1113L28.8922 14.0985L31.9099 11.1003Z" fill="white"/>
<path d="M14.8983 14.1018V20.8899H20.8898V33.1018L26.6992 38.9111H37.2966L43.0996 33.1082V20.9154H49.1017V14.1018H41.4915L36.5 19.0933V32.2967H27.4915V19.0849L22.5085 14.1018H14.8983Z" fill="white"/>
<path d="M15.9018 15.1016L15.9187 19.8788L21.723 19.9127L21.7399 32.597L27.1047 37.9618H36.8913L42.1316 32.6537L42.0977 19.9023H48.1152V15.0847L41.9178 15.0677L37.5116 19.5417L37.5285 33.2942L26.5314 33.3281L26.5144 19.7034L21.9127 15.0508L15.9018 15.1016Z" fill="black"/>
<path d="M16.478 15.6719L16.4936 19.335L22.5041 19.2983L22.5027 32.2706L27.5006 37.0991H36.7006L41.5167 32.2887L41.5196 19.2887L47.505 19.3226L47.4881 15.6902L42.304 15.6747L38.0823 19.9246L38.0978 33.943L26.0603 33.9741L26.0448 20.0727L21.7118 15.6592L16.478 15.6719Z" fill="white"/>
<path d="M24.1 44.6689V46.1064H25.3125V51.3064L19.6938 44.7064H12.7063V46.1189H14.2875V51.7126C14.2875 51.7126 13.8296 53.2626 11.7563 53.2626C9.68287 53.2626 9.30001 51.7064 9.30001 51.7064V46.0939H10.4875V44.7064L6.31876 44.6939V46.1189H7.30001V52.0876C7.30001 52.0876 7.28329 54.9037 11.575 54.9154C15.9671 54.9273 15.737 51.4746 15.725 51.4626V46.1064H17.9063V53.5126H16.7063V54.9154H20.5188V53.4876H19.5V48.1063L25.1392 54.9154H27.1V46.1063H29.325V53.4876H28.3063V54.9154H37.5V53.4876H36.2688V50.6938H37.3L39.7375 54.9154H46.559L46.5586 53.4876H45.2937V46.1056H46.5586V44.6611H41.9125V46.1063H43.3V53.4876H41.7187L39.1062 50.0626C39.1062 50.0626 41.2765 49.2255 41.3125 47.2001C41.3484 45.1746 38.675 44.6688 38.675 44.6688L24.1 44.6689ZM31.4125 46.1056H34.125V53.4876H31.4125V46.1056ZM36.425 46.1056H37.025C37.7869 46.1056 38.4625 46.7749 38.4625 47.3501C38.4625 47.9219 37.6625 48.5689 36.9625 48.5689H36.425V47.4189V46.1056Z" fill="white"/>
</svg>
